<svg xmlns="http://www.w3.org/2000/svg" viewBox="0 0 1173.54 1477.16">
  <path d="M163.3 751.45q0-304.48.11-609c0-23 1-46 2.68-68.9.81-10.64 3.62-21.39 7.15-31.51 8.5-24.31 25.84-33.77 51.32-29.08 20.94 3.84 39.1 14.13 56.72 25.31 43.18 27.4 86.12 55.17 129.23 82.73 29.21 18.64 58.59 37 87.79 55.66q54.12 34.56 108.07 69.4c30.77 19.9 61.34 40.11 92.11 60q52.21 33.81 104.62 67.34c31.29 20 62.76 39.76 94 59.81 32 20.49 63.8 41.22 95.71 61.81q51.23 33.06 102.5 66c38.67 24.87 77.4 49.63 116 74.6 26.29 17 52.81 33.7 78.43 51.68 12 8.44 23 18.82 33 29.64 18.87 20.42 18.42 45.67.28 66.8a173.67 173.67 0 01-37.77 33.18c-32.48 20.94-64.44 42.68-96.88 63.67-28.67 18.55-57.8 36.38-86.56 54.81-27.76 17.79-55.24 36.05-83 53.9-33.2 21.37-66.54 42.51-99.79 63.78q-50.92 32.6-101.8 65.28c-21.42 13.79-42.71 27.8-64.09 41.67-9.09 5.89-18.27 11.64-27.38 17.5q-59.68 38.37-119.36 76.78l-102.5 66c-29 18.62-58.18 37-87.21 55.61-32.11 20.59-64 41.5-96.24 61.91-23.62 15-46.47 31.38-72.56 42-8.88 3.62-18.17 6.91-27.57 8.41-21 3.35-37.32-6-45.89-25.66-7.32-16.75-9.64-34.69-9.91-52.74q-1.08-71.73-1.24-143.48-.21-257.49-.06-515z" transform="translate(-163.23 -11.82)" id="triangle" fill="#000000"/>
  <g id="cards" fill="#ef5351">
    <path id="path" d="M363 380.47a38.37 38.37 0 00-38.36 38.36V1082a38.37 38.37 0 0038.36 38.32h142.48a38.37 38.37 0 0038.37-38.32V418.83a38.37 38.37 0 00-38.37-38.36z" transform="translate(-163.23 -11.82)"/>
    <path id="path-1" d="M678.66 564.61A38.37 38.37 0 00640.3 603v292.62A38.37 38.37 0 00678.66 934h142.49a38.37 38.37 0 0038.37-38.37V603a38.37 38.37 0 00-38.37-38.36z" transform="translate(-163.23 -11.82)"/>
  </g>
</svg>
