<svg data-name="Kanbantam_Logo (1) Image" xmlns="http://www.w3.org/2000/svg" viewBox="0 0 1684.8 1377"><g fill="#fff"><path d="M1574.9 719.2c1.8-1.2 3.6-2.5 5.5-3.4 17.7-9.1 35.5-18.1 53.2-27.3 12.6-6.5 25-13.2 37.5-20a69.7 69.7 0 0010-6.3 10.2 10.2 0 00.5-15.4 20.2 20.2 0 00-5.5-3.4c-20-8.8-39.8-17.7-59.8-26.3a4408 4408 0 00-58.1-24.3c-5.7-2.3-11.6-4.2-17.4-6.2-1.3-3.4-3-6.6-4-10a344.9 344.9 0 00-14.6-36.4 337.1 337.1 0 00-47-75.5l-13.2-15.9c1.8-1.7 4.1-3.2 5.3-5.4 8.2-15 14.4-30.9 14.6-48.5.1-15.5-2.9-30.4-7.7-45a214.5 214.5 0 00-35.8-64.4 327 327 0 00-124-95.5 225.8 225.8 0 00-44.4-14.8c-3.9-.9-7.9-1.8-11.8-1.7-8.8.3-13.5 8.9-9 16.4a51.2 51.2 0 007.6 9.2A228.9 228.9 0 011284 233c8.5 13 16.7 26.4 22 41.2l-2.2 2.2a42.5 42.5 0 01-3.6-2.5 285.5 285.5 0 00-66.5-41 381.5 381.5 0 00-100-29.5c-19.8-3-39.7-5.1-59.7-4.2-12 .6-23.9 2.1-35.8 3.5a20 20 0 00-8 2.8c-6 3.8-5.2 12 1.3 14.9a82.6 82.6 0 008.3 2.6 298.5 298.5 0 01104 57.8c1.4 1.2 3.8 2 3 4.9a15.9 15.9 0 01-3.4-.2c-18-5.5-36.4-6.7-55-6.4s-37 3-55.1 6.8a360.2 360.2 0 00-144.7 65.6 50.6 50.6 0 00-7.4 6.3c-5.8 6.6-3 15 5.5 16.4a35.3 35.3 0 0010.7-.3c6.1-1 12.1-2.5 18.2-3.4 21.5-3.4 42.8-1.2 64 2.7a231.3 231.3 0 01104 47c-2.5 3-5 6.1-7.7 9a260.2 260.2 0 00-44.9 61.2 301.3 301.3 0 00-35.6 139.9c-.2 16.7-.6 33.4 2.3 50l4.8 29.8c-2.4 2.4-5 5.3-8 7.8-5 4.3-10 8.5-15.3 12.3A541.2 541.2 0 01846.7 802c-11.1 4.1-22.3 8.6-34.3 9.7.7-12.6 1.8-25.3 2-38 .8-35.6 1.1-71.2-1.8-106.8-1.6-18.5-2.9-37-5.1-55.3q-5.2-42.8-14.2-84.9a821.4 821.4 0 00-86.6-234.2 645.4 645.4 0 00-93-127.4 547.1 547.1 0 00-124-98.8A484.6 484.6 0 00257.5.3a513.2 513.2 0 00-84.8 4.3 369.2 369.2 0 00-58.4 13 35.3 35.3 0 00-7.8 3.5c-2.4 1.5-3 4-2.3 6.7 1.4 5.3 4.6 8.2 9.9 8.8 2.5.3 5 0 7.6.2 6.9.4 13.8.6 20.6 1.5 23.9 3.2 46.8 10 69.5 18A713.1 713.1 0 01385.9 145c14 9.7 27.3 20.6 40.7 31.1 3 2.4 6.4 4.7 8.1 9.5-2.8-.4-4.9-.5-7-1-4.5-1.1-9-2.7-13.6-3.7-32-7.1-64.5-9-97.4-7.2a580.3 580.3 0 00-89.5 11.9c-47 10-92.5 25-135.2 47.6-34 18-65 39.8-88.4 71-2 2.6-4.4 5-3.3 8.7 7.4 1.7 9.2 1.8 13.3-1a138.2 138.2 0 0134.6-15.5c41.7-14 84.9-19.2 128.5-21.3a378.2 378.2 0 0153.4 1.5c19.2 1.8 38.2 4.4 56.8 9.3 8.4 2.3 16.5 5.5 24.7 8.5 1.3.5 2.2 2 3.8 3.7-7.7 2.2-14.3 4-20.9 6a406.4 406.4 0 00-82 37.9 273.7 273.7 0 00-51 37c-13.2 13-25.8 26.5-38.7 39.8-5.9 6-6.8 13.4-5.8 21.2.5 4 2.8 5.9 6.8 5.1a23.7 23.7 0 006-2.2c6.1-3.1 12.2-6.5 18.4-9.5a162.6 162.6 0 0188.8-16.6c8.6.8 17.2 3 25.5 5.3a49 49 0 0119.3 9.8c1.5 1.3 2.5 3.2 4 5.2-2 1.3-3.4 2.5-5 3.4a129 129 0 00-59.7 78.6c-4.8 16-5 32.2 1.1 48.2a41.7 41.7 0 011.3 4.7l-2.3 3.1c-29.5 33.3-44.4 73-49.2 116.6a215.3 215.3 0 002.2 63c4.5 24.2 12.6 47 27.7 66.8 5.7 7.4 12.7 13.9 19.8 21.6-.5 5-1.5 11.1-1.8 17.2a161.4 161.4 0 0010 63.1c11.7 32 30.3 59.6 53.9 83.8 32.1 33 70 57.6 113 74.3 34.8 13.6 71 21 108.5 19.9 2.7 2.4 5.5 4.6 8 7.2 8.3 8.7 16.1 17.8 24.6 26.2q22 22 44.5 43.2a832.3 832.3 0 0065 54.8 807.1 807.1 0 0097 64.2c46.8 26.2 95.8 47 147.5 61.2a515.7 515.7 0 00106 17.8 464.6 464.6 0 00106.3-5.6 436.1 436.1 0 00125.6-41.7c48.9-25 91.8-58.2 129.5-98.2a575.6 575.6 0 0071.8-94.2c9.7-15.9 19.8-31.4 28.5-47.7a665.9 665.9 0 0048.3-119c6.7-21.8 12.5-44 18.8-66 5.1 8.9 11 17 18.5 24a56.2 56.2 0 0017 11.4 36.1 36.1 0 0042.7-9 86.6 86.6 0 0011.7-17c4.9-9 7.6-18.8 9.1-28.9 7-45.9-.5-89.5-21.5-130.8a86.5 86.5 0 00-29.3-34.2z"/><path d="M1462 448.8l13.2 15.9a337.1 337.1 0 0147 75.5 344.9 344.9 0 0114.6 36.3c1 3.5 2.7 6.7 4 10 1 5.4 2.2 10.6 3.3 16 2.5 12.3 6 24.5 7.1 37 1.1 11.8 3.8 23.6 2.7 35.6a34.6 34.6 0 00.6 6.5c.4 4.3 1.2 8.6 1.3 12.9a77 77 0 01-1.4 17.2c-1 5-2.6 10.8 2.1 15.4-3 2.3-2.6 5.7-2.9 9-4.5 49.2-11.6 98-22.8 146.3-1.6 7.1-2.8 14.3-4.2 21.4-6.2 22-12 44.1-18.7 66-12.6 41-28 81-48.3 118.9-8.7 16.3-18.8 31.9-28.5 47.7a575.6 575.6 0 01-71.9 94.2 472.6 472.6 0 01-129.5 98.3 436.1 436.1 0 01-125.5 41.6 464.6 464.6 0 01-106.2 5.6 515.7 515.7 0 01-106-17.8 653.4 653.4 0 01-147.4-61.2 807.1 807.1 0 01-97.1-64.2 832.3 832.3 0 01-65-54.7q-22.6-21.3-44.6-43.3c-8.4-8.4-16.3-17.5-24.5-26.2-2.5-2.6-5.4-4.8-8-7.2a47.4 47.4 0 014-19c7.8-20.8 19-39.8 31-58.3a729 729 0 0128.6-41 480.1 480.1 0 0141.2-48.8c4.3-4.4 8-9.3 12.2-13.8a96.1 96.1 0 016.9-7c4.8-4.3 9.8-8.4 14.6-12.8 6.4-6 12.6-11.9 19.3-17.5a395.4 395.4 0 0150.8-37 205.9 205.9 0 0148.1-22.5c11-3.2 22.2-6.3 33.6-8 5.7-.9 11.2-2.7 16.8-4.1 12-1.2 23.2-5.6 34.3-9.8a541.2 541.2 0 00132.5-71.7c5.3-3.9 10.3-8 15.3-12.3 3-2.5 5.6-5.5 8-7.8l-4.8-29.8c-2.9-16.6-2.5-33.3-2.4-50a301.3 301.3 0 0135.7-140 260.2 260.2 0 0144.9-61.2c2.8-2.8 5.2-6 7.8-9 2.9-2 6-4 8.7-6.3 64.5-53.3 137.9-70.5 219.2-52.5 53.9 12 99.6 39.1 139.2 77.2 3.6 3.5 7.4 6.9 11.1 10.3z"/><path d="M812.4 811.7c-5.6 1.4-11.1 3.2-16.8 4A264.9 264.9 0 00762 824a207 207 0 00-48 22.5 394 394 0 00-51 37c-6.6 5.5-12.8 11.5-19.2 17.4-4.8 4.4-9.8 8.5-14.6 12.9a96.1 96.1 0 00-7 6.9c-4 4.6-7.8 9.4-12 13.8a480.1 480.1 0 00-41.3 48.9c-10 13.3-19.6 26.9-28.6 40.9a302.5 302.5 0 00-31 58.4 47.4 47.4 0 00-4 18.9c-37.6 1-73.8-6.3-108.6-19.9a316.6 316.6 0 01-113-74.3 236.6 236.6 0 01-53.8-83.8 161.4 161.4 0 01-10-63c.2-6.2 1.2-12.3 1.7-17.3-7-7.7-14-14.2-19.7-21.6a153.7 153.7 0 01-27.8-66.8 215.3 215.3 0 01-2.1-63c4.8-43.6 19.7-83.3 49.2-116.6l2.2-3a41.7 41.7 0 00-1.2-4.8 73.5 73.5 0 01-1.2-48.2 129 129 0 0159.8-78.7l5-3.4c-1.5-1.9-2.5-3.8-4-5.1a49 49 0 00-19.3-9.8c-8.4-2.3-17-4.5-25.5-5.3a162.6 162.6 0 00-88.8 16.6c-6.2 3-12.2 6.4-18.4 9.5a23.7 23.7 0 01-6 2.2c-4 .8-6.3-1.1-6.8-5-1-7.9 0-15.3 5.8-21.3 12.9-13.3 25.5-26.8 38.8-39.7a274.4 274.4 0 0151-37.1 406.4 406.4 0 0182-37.8c6.5-2.2 13.2-3.9 20.8-6-1.6-1.7-2.5-3.3-3.8-3.8-8.1-3-16.3-6.2-24.7-8.4-18.6-5-37.6-7.5-56.8-9.3a378.2 378.2 0 00-53.3-1.6c-43.7 2-86.9 7.3-128.5 21.3-12 4-24 8.3-34.7 15.5-4.1 2.8-5.9 2.7-13.3 1-1-3.7 1.3-6 3.3-8.7C27 273 58 251.2 92 233.3a521.3 521.3 0 01135.2-47.7 580.3 580.3 0 0189.5-11.8c32.8-1.9 65.3 0 97.4 7.2 4.6 1 9 2.5 13.7 3.7 2 .5 4 .6 6.9 1-1.7-4.9-5.2-7.2-8.2-9.5-13.4-10.6-26.6-21.4-40.6-31.2a713.1 713.1 0 00-174.1-88.8 353.8 353.8 0 00-69.5-17.9c-6.8-.9-13.7-1-20.6-1.5-2.5-.2-5.1 0-7.6-.2-5.3-.6-8.5-3.5-9.9-8.7-.7-2.8-.1-5.3 2.3-6.7a35.3 35.3 0 017.8-3.7 369.2 369.2 0 0158.4-12.9A513.2 513.2 0 01257.5.2a485 485 0 01232.2 66 547.1 547.1 0 01124 99 645.4 645.4 0 0193 127.3 822.9 822.9 0 0186.6 234.1q9 42.2 14.2 85c2.2 18.3 3.5 36.8 5 55.3 3 35.5 2.7 71.1 2 106.8-.3 12.6-1.4 25.3-2.1 38zM1462 448.8l-11.2-10.3c-39.5-38-85.3-65.3-139-77.2-81.5-18-154.8-.8-219.3 52.5-2.8 2.3-5.8 4.2-8.7 6.3a231.3 231.3 0 00-104.2-47 192 192 0 00-63.9-2.6c-6 .9-12 2.5-18.2 3.4a35.3 35.3 0 01-10.7.3c-8.6-1.4-11.3-9.8-5.5-16.4a50.6 50.6 0 017.4-6.3 360.2 360.2 0 01144.7-65.6c18.1-3.8 36.5-6.5 55-6.8s37 .9 55 6.3a15.9 15.9 0 003.5.3c.8-2.9-1.6-3.7-3-4.9a298.5 298.5 0 00-104-57.8 82.6 82.6 0 01-8.4-2.6c-6.5-2.9-7.3-11-1.3-14.9a20 20 0 018-2.8c12-1.4 23.9-3 35.8-3.5 20-.9 40 1.3 59.7 4.2a381.5 381.5 0 01100 29.4 285.5 285.5 0 0166.6 41.1 42.5 42.5 0 003.5 2.5c.2.3.3.7.6.8l2.4 1.4a11 11 0 00.3-2.8c0-.5-.7-1-1-1.6a197.5 197.5 0 00-22-41.2 228.9 228.9 0 00-27.4-33.9 51.2 51.2 0 01-7.6-9.2c-4.4-7.5.3-16 9-16.3 4-.2 8 .8 11.8 1.7a225.8 225.8 0 0144.4 14.7c48.7 22.3 90.9 53 124 95.5a214.5 214.5 0 0135.8 64.4c4.8 14.6 7.9 29.5 7.7 45-.2 17.6-6.4 33.4-14.6 48.5-1.1 2.2-3.4 3.7-5.2 5.4zM1526.7 903.8c1.4-7.1 2.5-14.3 4.2-21.4 11.1-48.2 18.3-97 22.8-146.4.3-3.2-.1-6.6 2.9-9l18.3-7.8a86.8 86.8 0 0129.4 34.3c21 41.3 28.3 85 21.5 130.8-1.5 10-4.3 20-9.2 28.9a86.6 86.6 0 01-11.6 17 36.1 36.1 0 01-42.7 9 56.2 56.2 0 01-17-11.4c-7.6-7-13.5-15.2-18.6-24z"/><path d="M1574.9 719.2l-18.3 7.8c-4.7-4.5-3-10.3-2.1-15.3a77 77 0 001.4-17.2c-.2-4.3-1-8.6-1.4-12.9a34.6 34.6 0 01-.5-6.5c1-12-1.6-23.8-2.7-35.6-1.2-12.5-4.7-24.7-7.2-37-1-5.4-2.2-10.6-3.3-16 5.8 2 11.7 4 17.4 6.3 19.4 8 38.8 16 58.1 24.3 20 8.6 39.9 17.5 59.8 26.3a20.2 20.2 0 015.5 3.4 10.2 10.2 0 01-.4 15.4 69.7 69.7 0 01-10.1 6.4c-12.4 6.7-25 13.4-37.5 19.9-17.7 9.2-35.5 18.1-53.2 27.3-2 1-3.7 2.3-5.5 3.4zM1306 274.2c.4.5 1 1 1.1 1.6a11 11 0 01-.3 2.8l-2.4-1.4c-.3-.2-.4-.6-.6-.8z"/></g></svg>